<?xml version="1.0" encoding="UTF-8"?>
<svg id="Layer_1" data-name="Layer 1" xmlns="http://www.w3.org/2000/svg" viewBox="0 0 1024 352.5">
  <defs>
    <style>
      .cls-1, .cls-2 {
        fill: #6750a4;
      }

      .cls-2 {
        font-family: Poppins-Bold, Poppins;
        font-size: 164px;
        font-weight: 700;
      }
    </style>
  </defs>
  <g>
    <path class="cls-1" d="M138.18,320.11c.32,1.51,1.4,1.51,1.73,0l10.17-34.05h0c-7.75-1.86-15.2-4.52-22.3-7.75l10.4,41.79Z"/>
    <path class="cls-1" d="M306.99,163.07c0-5.45-.36-10.83-1-16.06l-36.58,106.14c23.24-23.02,37.58-54.86,37.58-90.08Z"/>
    <path class="cls-1" d="M80.65,83.39c-15.78,25.39-27.04,46.4-27.04,79.68,0,51.21,30.41,95.38,74.16,115.32l-5.31-24.6L80.65,83.39Z"/>
    <path class="cls-1" d="M204.8,112.01l-43.79,139.15-10.93,34.9c9.68,2.37,19.79,3.66,30.26,3.66,29.33,0,56.37-9.97,77.81-26.68l-50.85-151.04c-.43-1.22-2.15-1.22-2.51,0Z"/>
    <path class="cls-1" d="M293.8,132.59l5.95-14.42c-17.43-49.2-64.33-84.34-119.41-84.34-30.62,0-58.66,10.83-80.61,28.97l47.91,181.08c.14,.57,.93,.57,1.15,0l49.99-161,4.66-13.27c1.08-3.01,5.31-2.94,6.31,.07l4.3,13.41,46.54,145.3c.36,1.15,1.94,1.15,2.94-1.15l24.89-75.23h-18.65v-19.44h24.03Zm-32.7-16.14v-14.13h14.13v14.13h-14.13Z"/>
    <rect class="cls-1" x="321.55" y="96.09" width="12.34" height="12.34"/>
    <rect class="cls-1" x="299.75" y="92.14" width="12.34" height="12.34"/>
    <path class="cls-1" d="M327.72,117.39h-17.71c1.65,4.16,3.16,9.54,4.16,15.42,.14,.79,.29,1.58,.36,2.37h13.2v-17.79h0Z"/>
  </g>
  <text class="cls-2" transform="translate(357.74 233.57)"><tspan x="0" y="0">Workiz</tspan></text>
</svg>